<svg xmlns="http://www.w3.org/2000/svg" xmlns:xlink="http://www.w3.org/1999/xlink" width="140" zoomAndPan="magnify" viewBox="0 0 104.88 30.000001" height="40" preserveAspectRatio="xMidYMid meet" version="1.0"><defs><g/></defs><g fill="#ff00ff" fill-opacity="1"><g transform="translate(6.868662, 19.596776)"><g><path d="M 3.4375 0.265625 C 2.90625 0.265625 2.363281 0.195312 1.8125 0.0625 C 1.257812 -0.0625 0.800781 -0.234375 0.4375 -0.453125 L 0.515625 -2.421875 L 0.65625 -2.421875 L 1.109375 -1.484375 C 1.242188 -1.210938 1.382812 -0.972656 1.53125 -0.765625 C 1.6875 -0.554688 1.898438 -0.394531 2.171875 -0.28125 C 2.367188 -0.175781 2.554688 -0.109375 2.734375 -0.078125 C 2.910156 -0.046875 3.113281 -0.03125 3.34375 -0.03125 C 3.925781 -0.03125 4.390625 -0.1875 4.734375 -0.5 C 5.078125 -0.820312 5.25 -1.234375 5.25 -1.734375 C 5.25 -2.210938 5.132812 -2.582031 4.90625 -2.84375 C 4.675781 -3.113281 4.300781 -3.375 3.78125 -3.625 L 3.1875 -3.890625 C 2.351562 -4.253906 1.703125 -4.675781 1.234375 -5.15625 C 0.765625 -5.632812 0.53125 -6.269531 0.53125 -7.0625 C 0.53125 -7.632812 0.675781 -8.128906 0.96875 -8.546875 C 1.269531 -8.960938 1.679688 -9.28125 2.203125 -9.5 C 2.734375 -9.726562 3.351562 -9.84375 4.0625 -9.84375 C 4.570312 -9.84375 5.054688 -9.773438 5.515625 -9.640625 C 5.984375 -9.503906 6.382812 -9.320312 6.71875 -9.09375 L 6.640625 -7.34375 L 6.484375 -7.34375 L 5.890625 -8.4375 C 5.722656 -8.769531 5.554688 -9.003906 5.390625 -9.140625 C 5.234375 -9.285156 5.046875 -9.390625 4.828125 -9.453125 C 4.703125 -9.484375 4.585938 -9.503906 4.484375 -9.515625 C 4.378906 -9.535156 4.242188 -9.546875 4.078125 -9.546875 C 3.585938 -9.546875 3.171875 -9.398438 2.828125 -9.109375 C 2.492188 -8.828125 2.328125 -8.445312 2.328125 -7.96875 C 2.328125 -7.476562 2.457031 -7.082031 2.71875 -6.78125 C 2.976562 -6.488281 3.359375 -6.226562 3.859375 -6 L 4.53125 -5.703125 C 5.457031 -5.296875 6.125 -4.863281 6.53125 -4.40625 C 6.9375 -3.945312 7.140625 -3.351562 7.140625 -2.625 C 7.140625 -1.769531 6.816406 -1.070312 6.171875 -0.53125 C 5.535156 0 4.625 0.265625 3.4375 0.265625 Z M 3.4375 0.265625 "/></g></g></g><g fill="#ff00ff" fill-opacity="1"><g transform="translate(14.431553, 19.596776)"><g><path d="M 2.40625 0.21875 C 1.84375 0.21875 1.367188 0.0625 0.984375 -0.25 C 0.609375 -0.570312 0.421875 -1.035156 0.421875 -1.640625 C 0.421875 -2.097656 0.648438 -2.515625 1.109375 -2.890625 C 1.578125 -3.273438 2.3125 -3.566406 3.3125 -3.765625 C 3.46875 -3.785156 3.640625 -3.8125 3.828125 -3.84375 C 4.023438 -3.882812 4.226562 -3.925781 4.4375 -3.96875 L 4.4375 -5.109375 C 4.4375 -5.765625 4.359375 -6.222656 4.203125 -6.484375 C 4.046875 -6.753906 3.796875 -6.890625 3.453125 -6.890625 C 3.222656 -6.890625 3.039062 -6.8125 2.90625 -6.65625 C 2.769531 -6.507812 2.679688 -6.253906 2.640625 -5.890625 L 2.609375 -5.734375 C 2.585938 -5.316406 2.484375 -5.007812 2.296875 -4.8125 C 2.117188 -4.625 1.894531 -4.53125 1.625 -4.53125 C 1.375 -4.53125 1.164062 -4.609375 1 -4.765625 C 0.832031 -4.921875 0.75 -5.128906 0.75 -5.390625 C 0.75 -5.785156 0.882812 -6.117188 1.15625 -6.390625 C 1.4375 -6.660156 1.804688 -6.863281 2.265625 -7 C 2.722656 -7.132812 3.21875 -7.203125 3.75 -7.203125 C 4.601562 -7.203125 5.265625 -6.988281 5.734375 -6.5625 C 6.203125 -6.144531 6.4375 -5.460938 6.4375 -4.515625 L 6.4375 -1.3125 C 6.4375 -0.875 6.640625 -0.65625 7.046875 -0.65625 L 7.375 -0.65625 L 7.5 -0.53125 C 7.320312 -0.300781 7.125 -0.125 6.90625 0 C 6.6875 0.125 6.378906 0.1875 5.984375 0.1875 C 5.554688 0.1875 5.21875 0.0859375 4.96875 -0.109375 C 4.71875 -0.304688 4.554688 -0.570312 4.484375 -0.90625 C 4.191406 -0.59375 3.894531 -0.328125 3.59375 -0.109375 C 3.289062 0.109375 2.894531 0.21875 2.40625 0.21875 Z M 3.296875 -0.671875 C 3.484375 -0.671875 3.660156 -0.710938 3.828125 -0.796875 C 4.003906 -0.890625 4.207031 -1.035156 4.4375 -1.234375 L 4.4375 -3.671875 C 4.34375 -3.648438 4.242188 -3.628906 4.140625 -3.609375 C 4.046875 -3.585938 3.9375 -3.570312 3.8125 -3.5625 C 3.375 -3.4375 3.019531 -3.238281 2.75 -2.96875 C 2.476562 -2.695312 2.34375 -2.328125 2.34375 -1.859375 C 2.34375 -1.460938 2.4375 -1.164062 2.625 -0.96875 C 2.8125 -0.769531 3.035156 -0.671875 3.296875 -0.671875 Z M 2.859375 -8.3125 C 2.992188 -8.5625 3.148438 -8.84375 3.328125 -9.15625 C 3.503906 -9.476562 3.710938 -9.867188 3.953125 -10.328125 C 4.117188 -10.628906 4.273438 -10.847656 4.421875 -10.984375 C 4.578125 -11.128906 4.757812 -11.203125 4.96875 -11.203125 C 5.144531 -11.203125 5.300781 -11.140625 5.4375 -11.015625 C 5.570312 -10.898438 5.640625 -10.753906 5.640625 -10.578125 C 5.640625 -10.398438 5.578125 -10.226562 5.453125 -10.0625 C 5.328125 -9.90625 5.117188 -9.71875 4.828125 -9.5 C 4.410156 -9.21875 4.0625 -8.96875 3.78125 -8.75 C 3.5 -8.53125 3.242188 -8.335938 3.015625 -8.171875 Z M 2.859375 -8.3125 "/></g></g></g><g fill="#ff00ff" fill-opacity="1"><g transform="translate(21.950897, 19.596776)"><g><path d="M 3.546875 0.046875 L 0.96875 -6.125 C 0.832031 -6.457031 0.601562 -6.675781 0.28125 -6.78125 L 0.078125 -6.84375 L 0.078125 -6.984375 L 3.828125 -6.984375 L 3.828125 -6.84375 L 3.578125 -6.78125 C 3.191406 -6.6875 3.070312 -6.4375 3.21875 -6.03125 L 4.75 -1.96875 L 6.171875 -6 C 6.242188 -6.1875 6.257812 -6.34375 6.21875 -6.46875 C 6.1875 -6.59375 6.070312 -6.6875 5.875 -6.75 L 5.515625 -6.84375 L 5.515625 -6.984375 L 7.625 -6.984375 L 7.625 -6.84375 L 7.203125 -6.734375 C 7.015625 -6.679688 6.867188 -6.609375 6.765625 -6.515625 C 6.671875 -6.421875 6.585938 -6.273438 6.515625 -6.078125 L 4.390625 0.046875 Z M 3.546875 0.046875 "/></g></g></g><g fill="#ff00ff" fill-opacity="1"><g transform="translate(29.644439, 19.596776)"><g><path d="M 2.03125 -7.953125 C 1.695312 -7.953125 1.414062 -8.054688 1.1875 -8.265625 C 0.96875 -8.472656 0.859375 -8.738281 0.859375 -9.0625 C 0.859375 -9.382812 0.96875 -9.644531 1.1875 -9.84375 C 1.414062 -10.050781 1.695312 -10.15625 2.03125 -10.15625 C 2.363281 -10.15625 2.640625 -10.050781 2.859375 -9.84375 C 3.078125 -9.644531 3.1875 -9.382812 3.1875 -9.0625 C 3.1875 -8.738281 3.078125 -8.472656 2.859375 -8.265625 C 2.640625 -8.054688 2.363281 -7.953125 2.03125 -7.953125 Z M 0.3125 0 L 0.3125 -0.140625 L 0.515625 -0.203125 C 0.710938 -0.265625 0.847656 -0.351562 0.921875 -0.46875 C 0.992188 -0.582031 1.03125 -0.734375 1.03125 -0.921875 L 1.03125 -5.46875 C 1.03125 -5.675781 0.992188 -5.828125 0.921875 -5.921875 C 0.847656 -6.023438 0.710938 -6.097656 0.515625 -6.140625 L 0.3125 -6.1875 L 0.3125 -6.328125 L 2.96875 -7.1875 L 3.125 -7.046875 L 3.078125 -4.984375 L 3.078125 -0.921875 C 3.078125 -0.722656 3.113281 -0.566406 3.1875 -0.453125 C 3.257812 -0.335938 3.390625 -0.25 3.578125 -0.1875 L 3.71875 -0.140625 L 3.71875 0 Z M 0.3125 0 "/></g></g></g><g fill="#ff00ff" fill-opacity="1"><g transform="translate(33.708948, 19.596776)"><g><path d="M 3.96875 0.21875 C 3.226562 0.21875 2.585938 0.0664062 2.046875 -0.234375 C 1.503906 -0.546875 1.082031 -0.976562 0.78125 -1.53125 C 0.488281 -2.09375 0.34375 -2.753906 0.34375 -3.515625 C 0.34375 -4.265625 0.5 -4.914062 0.8125 -5.46875 C 1.132812 -6.019531 1.566406 -6.445312 2.109375 -6.75 C 2.660156 -7.050781 3.28125 -7.203125 3.96875 -7.203125 C 4.65625 -7.203125 5.269531 -7.050781 5.8125 -6.75 C 6.351562 -6.457031 6.78125 -6.035156 7.09375 -5.484375 C 7.40625 -4.929688 7.5625 -4.273438 7.5625 -3.515625 C 7.5625 -2.742188 7.410156 -2.082031 7.109375 -1.53125 C 6.816406 -0.976562 6.398438 -0.546875 5.859375 -0.234375 C 5.328125 0.0664062 4.695312 0.21875 3.96875 0.21875 Z M 3.96875 -0.078125 C 4.300781 -0.078125 4.566406 -0.171875 4.765625 -0.359375 C 4.972656 -0.554688 5.125 -0.898438 5.21875 -1.390625 C 5.3125 -1.890625 5.359375 -2.585938 5.359375 -3.484375 C 5.359375 -4.390625 5.3125 -5.085938 5.21875 -5.578125 C 5.125 -6.078125 4.972656 -6.421875 4.765625 -6.609375 C 4.566406 -6.804688 4.300781 -6.90625 3.96875 -6.90625 C 3.625 -6.90625 3.347656 -6.804688 3.140625 -6.609375 C 2.929688 -6.421875 2.78125 -6.078125 2.6875 -5.578125 C 2.601562 -5.085938 2.5625 -4.390625 2.5625 -3.484375 C 2.5625 -2.585938 2.601562 -1.890625 2.6875 -1.390625 C 2.78125 -0.898438 2.929688 -0.554688 3.140625 -0.359375 C 3.347656 -0.171875 3.625 -0.078125 3.96875 -0.078125 Z M 3.96875 -0.078125 "/></g></g></g><g fill="#ff00ff" fill-opacity="1"><g transform="translate(41.620234, 19.596776)"><g/></g></g><g fill="#ff00ff" fill-opacity="1"><g transform="translate(44.784751, 19.596776)"><g><path d="M 0.3125 0 L 0.3125 -0.140625 L 0.625 -0.265625 C 0.820312 -0.335938 0.945312 -0.429688 1 -0.546875 C 1.0625 -0.660156 1.09375 -0.8125 1.09375 -1 L 1.09375 -8.578125 C 1.09375 -8.773438 1.0625 -8.929688 1 -9.046875 C 0.945312 -9.160156 0.820312 -9.25 0.625 -9.3125 L 0.3125 -9.4375 L 0.3125 -9.578125 L 4.015625 -9.578125 L 4.015625 -9.4375 L 3.765625 -9.3125 C 3.578125 -9.25 3.445312 -9.15625 3.375 -9.03125 C 3.3125 -8.914062 3.28125 -8.757812 3.28125 -8.5625 L 3.28125 -0.296875 L 5.515625 -0.296875 C 5.867188 -0.296875 6.128906 -0.378906 6.296875 -0.546875 C 6.472656 -0.722656 6.640625 -0.976562 6.796875 -1.3125 L 7.359375 -2.53125 L 7.5 -2.53125 L 7.375 0 Z M 0.3125 0 "/></g></g></g><g fill="#ff00ff" fill-opacity="1"><g transform="translate(52.623451, 19.596776)"><g><path d="M 3.9375 -7.203125 C 4.5625 -7.203125 5.097656 -7.070312 5.546875 -6.8125 C 5.992188 -6.5625 6.332031 -6.210938 6.5625 -5.765625 C 6.800781 -5.328125 6.921875 -4.828125 6.921875 -4.265625 C 6.921875 -4.160156 6.914062 -4.050781 6.90625 -3.9375 C 6.894531 -3.832031 6.875 -3.734375 6.84375 -3.640625 L 2.53125 -3.640625 C 2.539062 -2.597656 2.722656 -1.847656 3.078125 -1.390625 C 3.441406 -0.929688 3.984375 -0.703125 4.703125 -0.703125 C 5.179688 -0.703125 5.570312 -0.773438 5.875 -0.921875 C 6.175781 -1.078125 6.457031 -1.304688 6.71875 -1.609375 L 6.859375 -1.484375 C 6.566406 -0.953125 6.171875 -0.535156 5.671875 -0.234375 C 5.171875 0.0664062 4.570312 0.21875 3.875 0.21875 C 3.1875 0.21875 2.578125 0.0703125 2.046875 -0.21875 C 1.515625 -0.519531 1.097656 -0.945312 0.796875 -1.5 C 0.492188 -2.050781 0.34375 -2.707031 0.34375 -3.46875 C 0.34375 -4.257812 0.515625 -4.929688 0.859375 -5.484375 C 1.210938 -6.046875 1.660156 -6.472656 2.203125 -6.765625 C 2.753906 -7.054688 3.332031 -7.203125 3.9375 -7.203125 Z M 3.890625 -6.90625 C 3.609375 -6.90625 3.367188 -6.820312 3.171875 -6.65625 C 2.972656 -6.488281 2.816406 -6.1875 2.703125 -5.75 C 2.597656 -5.320312 2.539062 -4.71875 2.53125 -3.9375 L 5.015625 -3.9375 C 5.109375 -4.988281 5.066406 -5.742188 4.890625 -6.203125 C 4.710938 -6.671875 4.378906 -6.90625 3.890625 -6.90625 Z M 3.890625 -6.90625 "/></g></g></g><g fill="#ff00ff" fill-opacity="1"><g transform="translate(59.983117, 19.596776)"><g><path d="M 2.40625 0.21875 C 1.84375 0.21875 1.367188 0.0625 0.984375 -0.25 C 0.609375 -0.570312 0.421875 -1.035156 0.421875 -1.640625 C 0.421875 -2.097656 0.648438 -2.515625 1.109375 -2.890625 C 1.578125 -3.273438 2.3125 -3.566406 3.3125 -3.765625 C 3.46875 -3.785156 3.640625 -3.8125 3.828125 -3.84375 C 4.023438 -3.882812 4.226562 -3.925781 4.4375 -3.96875 L 4.4375 -5.109375 C 4.4375 -5.765625 4.359375 -6.222656 4.203125 -6.484375 C 4.046875 -6.753906 3.796875 -6.890625 3.453125 -6.890625 C 3.222656 -6.890625 3.039062 -6.8125 2.90625 -6.65625 C 2.769531 -6.507812 2.679688 -6.253906 2.640625 -5.890625 L 2.609375 -5.734375 C 2.585938 -5.316406 2.484375 -5.007812 2.296875 -4.8125 C 2.117188 -4.625 1.894531 -4.53125 1.625 -4.53125 C 1.375 -4.53125 1.164062 -4.609375 1 -4.765625 C 0.832031 -4.921875 0.75 -5.128906 0.75 -5.390625 C 0.75 -5.785156 0.882812 -6.117188 1.15625 -6.390625 C 1.4375 -6.660156 1.804688 -6.863281 2.265625 -7 C 2.722656 -7.132812 3.21875 -7.203125 3.75 -7.203125 C 4.601562 -7.203125 5.265625 -6.988281 5.734375 -6.5625 C 6.203125 -6.144531 6.4375 -5.460938 6.4375 -4.515625 L 6.4375 -1.3125 C 6.4375 -0.875 6.640625 -0.65625 7.046875 -0.65625 L 7.375 -0.65625 L 7.5 -0.53125 C 7.320312 -0.300781 7.125 -0.125 6.90625 0 C 6.6875 0.125 6.378906 0.1875 5.984375 0.1875 C 5.554688 0.1875 5.21875 0.0859375 4.96875 -0.109375 C 4.71875 -0.304688 4.554688 -0.570312 4.484375 -0.90625 C 4.191406 -0.59375 3.894531 -0.328125 3.59375 -0.109375 C 3.289062 0.109375 2.894531 0.21875 2.40625 0.21875 Z M 3.296875 -0.671875 C 3.484375 -0.671875 3.660156 -0.710938 3.828125 -0.796875 C 4.003906 -0.890625 4.207031 -1.035156 4.4375 -1.234375 L 4.4375 -3.671875 C 4.34375 -3.648438 4.242188 -3.628906 4.140625 -3.609375 C 4.046875 -3.585938 3.9375 -3.570312 3.8125 -3.5625 C 3.375 -3.4375 3.019531 -3.238281 2.75 -2.96875 C 2.476562 -2.695312 2.34375 -2.328125 2.34375 -1.859375 C 2.34375 -1.460938 2.4375 -1.164062 2.625 -0.96875 C 2.8125 -0.769531 3.035156 -0.671875 3.296875 -0.671875 Z M 3.296875 -0.671875 "/></g></g></g><g fill="#ff00ff" fill-opacity="1"><g transform="translate(67.502461, 19.596776)"><g><path d="M 0.296875 0 L 0.296875 -0.140625 L 0.5 -0.203125 C 0.832031 -0.296875 1 -0.535156 1 -0.921875 L 1 -5.453125 C 1 -5.671875 0.960938 -5.828125 0.890625 -5.921875 C 0.828125 -6.023438 0.703125 -6.097656 0.515625 -6.140625 L 0.296875 -6.203125 L 0.296875 -6.34375 L 2.765625 -7.1875 L 2.921875 -7.046875 L 3.03125 -6.171875 C 3.375 -6.472656 3.753906 -6.71875 4.171875 -6.90625 C 4.597656 -7.101562 5.019531 -7.203125 5.4375 -7.203125 C 6.082031 -7.203125 6.578125 -7.023438 6.921875 -6.671875 C 7.265625 -6.328125 7.4375 -5.796875 7.4375 -5.078125 L 7.4375 -0.90625 C 7.4375 -0.519531 7.617188 -0.28125 7.984375 -0.1875 L 8.109375 -0.140625 L 8.109375 0 L 4.6875 0 L 4.6875 -0.140625 L 4.875 -0.203125 C 5.21875 -0.304688 5.390625 -0.546875 5.390625 -0.921875 L 5.390625 -5.546875 C 5.390625 -6.160156 5.078125 -6.46875 4.453125 -6.46875 C 4.023438 -6.46875 3.5625 -6.253906 3.0625 -5.828125 L 3.0625 -0.90625 C 3.0625 -0.519531 3.234375 -0.28125 3.578125 -0.1875 L 3.703125 -0.140625 L 3.703125 0 Z M 0.296875 0 "/></g></g></g><g fill="#ff00ff" fill-opacity="1"><g transform="translate(75.892771, 19.596776)"><g><path d="M 3.375 0.21875 C 2.800781 0.21875 2.285156 0.09375 1.828125 -0.15625 C 1.367188 -0.414062 1.003906 -0.8125 0.734375 -1.34375 C 0.472656 -1.882812 0.34375 -2.578125 0.34375 -3.421875 C 0.34375 -4.273438 0.492188 -4.976562 0.796875 -5.53125 C 1.097656 -6.09375 1.492188 -6.507812 1.984375 -6.78125 C 2.484375 -7.0625 3.019531 -7.203125 3.59375 -7.203125 C 3.9375 -7.203125 4.257812 -7.164062 4.5625 -7.09375 C 4.875 -7.03125 5.15625 -6.929688 5.40625 -6.796875 L 5.40625 -8.6875 C 5.40625 -8.882812 5.375 -9.03125 5.3125 -9.125 C 5.25 -9.226562 5.113281 -9.296875 4.90625 -9.328125 L 4.625 -9.390625 L 4.625 -9.53125 L 7.265625 -10.171875 L 7.4375 -10.046875 L 7.375 -8.015625 L 7.375 -0.921875 C 7.375 -0.722656 7.40625 -0.5625 7.46875 -0.4375 C 7.539062 -0.320312 7.671875 -0.238281 7.859375 -0.1875 L 7.984375 -0.140625 L 7.984375 0 L 5.5 0.15625 L 5.375 -0.359375 C 5.113281 -0.191406 4.816406 -0.0546875 4.484375 0.046875 C 4.148438 0.160156 3.78125 0.21875 3.375 0.21875 Z M 4.203125 -0.3125 C 4.609375 -0.3125 4.984375 -0.4375 5.328125 -0.6875 L 5.328125 -6.4375 C 4.972656 -6.675781 4.601562 -6.796875 4.21875 -6.796875 C 3.757812 -6.796875 3.363281 -6.523438 3.03125 -5.984375 C 2.707031 -5.453125 2.546875 -4.609375 2.546875 -3.453125 C 2.546875 -2.304688 2.695312 -1.492188 3 -1.015625 C 3.3125 -0.546875 3.710938 -0.3125 4.203125 -0.3125 Z M 4.203125 -0.3125 "/></g></g></g><g fill="#ff00ff" fill-opacity="1"><g transform="translate(84.225026, 19.596776)"><g><path d="M 0.296875 0 L 0.296875 -0.140625 L 0.515625 -0.203125 C 0.703125 -0.265625 0.832031 -0.351562 0.90625 -0.46875 C 0.976562 -0.582031 1.015625 -0.734375 1.015625 -0.921875 L 1.015625 -5.453125 C 1.015625 -5.671875 0.976562 -5.828125 0.90625 -5.921875 C 0.832031 -6.023438 0.703125 -6.097656 0.515625 -6.140625 L 0.296875 -6.203125 L 0.296875 -6.34375 L 2.78125 -7.1875 L 2.9375 -7.046875 L 3.0625 -5.796875 L 3.0625 -5.671875 C 3.195312 -5.941406 3.375 -6.191406 3.59375 -6.421875 C 3.8125 -6.648438 4.050781 -6.835938 4.3125 -6.984375 C 4.582031 -7.128906 4.847656 -7.203125 5.109375 -7.203125 C 5.472656 -7.203125 5.75 -7.097656 5.9375 -6.890625 C 6.132812 -6.691406 6.234375 -6.4375 6.234375 -6.125 C 6.234375 -5.789062 6.140625 -5.535156 5.953125 -5.359375 C 5.765625 -5.179688 5.539062 -5.09375 5.28125 -5.09375 C 4.875 -5.09375 4.515625 -5.296875 4.203125 -5.703125 L 4.1875 -5.734375 C 4.082031 -5.867188 3.96875 -5.941406 3.84375 -5.953125 C 3.71875 -5.972656 3.601562 -5.914062 3.5 -5.78125 C 3.40625 -5.6875 3.328125 -5.578125 3.265625 -5.453125 C 3.203125 -5.335938 3.140625 -5.203125 3.078125 -5.046875 L 3.078125 -1 C 3.078125 -0.613281 3.242188 -0.375 3.578125 -0.28125 L 4.046875 -0.140625 L 4.046875 0 Z M 0.296875 0 "/></g></g></g><g fill="#ff00ff" fill-opacity="1"><g transform="translate(90.626633, 19.596776)"><g><path d="M 3.96875 0.21875 C 3.226562 0.21875 2.585938 0.0664062 2.046875 -0.234375 C 1.503906 -0.546875 1.082031 -0.976562 0.78125 -1.53125 C 0.488281 -2.09375 0.34375 -2.753906 0.34375 -3.515625 C 0.34375 -4.265625 0.5 -4.914062 0.8125 -5.46875 C 1.132812 -6.019531 1.566406 -6.445312 2.109375 -6.75 C 2.660156 -7.050781 3.28125 -7.203125 3.96875 -7.203125 C 4.65625 -7.203125 5.269531 -7.050781 5.8125 -6.75 C 6.351562 -6.457031 6.78125 -6.035156 7.09375 -5.484375 C 7.40625 -4.929688 7.5625 -4.273438 7.5625 -3.515625 C 7.5625 -2.742188 7.410156 -2.082031 7.109375 -1.53125 C 6.816406 -0.976562 6.398438 -0.546875 5.859375 -0.234375 C 5.328125 0.0664062 4.695312 0.21875 3.96875 0.21875 Z M 3.96875 -0.078125 C 4.300781 -0.078125 4.566406 -0.171875 4.765625 -0.359375 C 4.972656 -0.554688 5.125 -0.898438 5.21875 -1.390625 C 5.3125 -1.890625 5.359375 -2.585938 5.359375 -3.484375 C 5.359375 -4.390625 5.3125 -5.085938 5.21875 -5.578125 C 5.125 -6.078125 4.972656 -6.421875 4.765625 -6.609375 C 4.566406 -6.804688 4.300781 -6.90625 3.96875 -6.90625 C 3.625 -6.90625 3.347656 -6.804688 3.140625 -6.609375 C 2.929688 -6.421875 2.78125 -6.078125 2.6875 -5.578125 C 2.601562 -5.085938 2.5625 -4.390625 2.5625 -3.484375 C 2.5625 -2.585938 2.601562 -1.890625 2.6875 -1.390625 C 2.78125 -0.898438 2.929688 -0.554688 3.140625 -0.359375 C 3.347656 -0.171875 3.625 -0.078125 3.96875 -0.078125 Z M 3.96875 -0.078125 "/></g></g></g><g fill="#00ffff" fill-opacity="1"><g transform="translate(6.324307, 19.596776)"><g><path d="M 3.4375 0.265625 C 2.90625 0.265625 2.363281 0.195312 1.8125 0.0625 C 1.257812 -0.0625 0.800781 -0.234375 0.4375 -0.453125 L 0.515625 -2.421875 L 0.65625 -2.421875 L 1.109375 -1.484375 C 1.242188 -1.210938 1.382812 -0.972656 1.53125 -0.765625 C 1.6875 -0.554688 1.898438 -0.394531 2.171875 -0.28125 C 2.367188 -0.175781 2.554688 -0.109375 2.734375 -0.078125 C 2.910156 -0.046875 3.113281 -0.03125 3.34375 -0.03125 C 3.925781 -0.03125 4.390625 -0.1875 4.734375 -0.5 C 5.078125 -0.820312 5.25 -1.234375 5.25 -1.734375 C 5.25 -2.210938 5.132812 -2.582031 4.90625 -2.84375 C 4.675781 -3.113281 4.300781 -3.375 3.78125 -3.625 L 3.1875 -3.890625 C 2.351562 -4.253906 1.703125 -4.675781 1.234375 -5.15625 C 0.765625 -5.632812 0.53125 -6.269531 0.53125 -7.0625 C 0.53125 -7.632812 0.675781 -8.128906 0.96875 -8.546875 C 1.269531 -8.960938 1.679688 -9.28125 2.203125 -9.5 C 2.734375 -9.726562 3.351562 -9.84375 4.0625 -9.84375 C 4.570312 -9.84375 5.054688 -9.773438 5.515625 -9.640625 C 5.984375 -9.503906 6.382812 -9.320312 6.71875 -9.09375 L 6.640625 -7.34375 L 6.484375 -7.34375 L 5.890625 -8.4375 C 5.722656 -8.769531 5.554688 -9.003906 5.390625 -9.140625 C 5.234375 -9.285156 5.046875 -9.390625 4.828125 -9.453125 C 4.703125 -9.484375 4.585938 -9.503906 4.484375 -9.515625 C 4.378906 -9.535156 4.242188 -9.546875 4.078125 -9.546875 C 3.585938 -9.546875 3.171875 -9.398438 2.828125 -9.109375 C 2.492188 -8.828125 2.328125 -8.445312 2.328125 -7.96875 C 2.328125 -7.476562 2.457031 -7.082031 2.71875 -6.78125 C 2.976562 -6.488281 3.359375 -6.226562 3.859375 -6 L 4.53125 -5.703125 C 5.457031 -5.296875 6.125 -4.863281 6.53125 -4.40625 C 6.9375 -3.945312 7.140625 -3.351562 7.140625 -2.625 C 7.140625 -1.769531 6.816406 -1.070312 6.171875 -0.53125 C 5.535156 0 4.625 0.265625 3.4375 0.265625 Z M 3.4375 0.265625 "/></g></g></g><g fill="#00ffff" fill-opacity="1"><g transform="translate(13.887198, 19.596776)"><g><path d="M 2.40625 0.21875 C 1.84375 0.21875 1.367188 0.0625 0.984375 -0.25 C 0.609375 -0.570312 0.421875 -1.035156 0.421875 -1.640625 C 0.421875 -2.097656 0.648438 -2.515625 1.109375 -2.890625 C 1.578125 -3.273438 2.3125 -3.566406 3.3125 -3.765625 C 3.46875 -3.785156 3.640625 -3.8125 3.828125 -3.84375 C 4.023438 -3.882812 4.226562 -3.925781 4.4375 -3.96875 L 4.4375 -5.109375 C 4.4375 -5.765625 4.359375 -6.222656 4.203125 -6.484375 C 4.046875 -6.753906 3.796875 -6.890625 3.453125 -6.890625 C 3.222656 -6.890625 3.039062 -6.8125 2.90625 -6.65625 C 2.769531 -6.507812 2.679688 -6.253906 2.640625 -5.890625 L 2.609375 -5.734375 C 2.585938 -5.316406 2.484375 -5.007812 2.296875 -4.8125 C 2.117188 -4.625 1.894531 -4.53125 1.625 -4.53125 C 1.375 -4.53125 1.164062 -4.609375 1 -4.765625 C 0.832031 -4.921875 0.75 -5.128906 0.75 -5.390625 C 0.75 -5.785156 0.882812 -6.117188 1.15625 -6.390625 C 1.4375 -6.660156 1.804688 -6.863281 2.265625 -7 C 2.722656 -7.132812 3.21875 -7.203125 3.75 -7.203125 C 4.601562 -7.203125 5.265625 -6.988281 5.734375 -6.5625 C 6.203125 -6.144531 6.4375 -5.460938 6.4375 -4.515625 L 6.4375 -1.3125 C 6.4375 -0.875 6.640625 -0.65625 7.046875 -0.65625 L 7.375 -0.65625 L 7.5 -0.53125 C 7.320312 -0.300781 7.125 -0.125 6.90625 0 C 6.6875 0.125 6.378906 0.1875 5.984375 0.1875 C 5.554688 0.1875 5.21875 0.0859375 4.96875 -0.109375 C 4.71875 -0.304688 4.554688 -0.570312 4.484375 -0.90625 C 4.191406 -0.59375 3.894531 -0.328125 3.59375 -0.109375 C 3.289062 0.109375 2.894531 0.21875 2.40625 0.21875 Z M 3.296875 -0.671875 C 3.484375 -0.671875 3.660156 -0.710938 3.828125 -0.796875 C 4.003906 -0.890625 4.207031 -1.035156 4.4375 -1.234375 L 4.4375 -3.671875 C 4.34375 -3.648438 4.242188 -3.628906 4.140625 -3.609375 C 4.046875 -3.585938 3.9375 -3.570312 3.8125 -3.5625 C 3.375 -3.4375 3.019531 -3.238281 2.75 -2.96875 C 2.476562 -2.695312 2.34375 -2.328125 2.34375 -1.859375 C 2.34375 -1.460938 2.4375 -1.164062 2.625 -0.96875 C 2.8125 -0.769531 3.035156 -0.671875 3.296875 -0.671875 Z M 2.859375 -8.3125 C 2.992188 -8.5625 3.148438 -8.84375 3.328125 -9.15625 C 3.503906 -9.476562 3.710938 -9.867188 3.953125 -10.328125 C 4.117188 -10.628906 4.273438 -10.847656 4.421875 -10.984375 C 4.578125 -11.128906 4.757812 -11.203125 4.96875 -11.203125 C 5.144531 -11.203125 5.300781 -11.140625 5.4375 -11.015625 C 5.570312 -10.898438 5.640625 -10.753906 5.640625 -10.578125 C 5.640625 -10.398438 5.578125 -10.226562 5.453125 -10.0625 C 5.328125 -9.90625 5.117188 -9.71875 4.828125 -9.5 C 4.410156 -9.21875 4.0625 -8.96875 3.78125 -8.75 C 3.5 -8.53125 3.242188 -8.335938 3.015625 -8.171875 Z M 2.859375 -8.3125 "/></g></g></g><g fill="#00ffff" fill-opacity="1"><g transform="translate(21.406542, 19.596776)"><g><path d="M 3.546875 0.046875 L 0.96875 -6.125 C 0.832031 -6.457031 0.601562 -6.675781 0.28125 -6.78125 L 0.078125 -6.84375 L 0.078125 -6.984375 L 3.828125 -6.984375 L 3.828125 -6.84375 L 3.578125 -6.78125 C 3.191406 -6.6875 3.070312 -6.4375 3.21875 -6.03125 L 4.75 -1.96875 L 6.171875 -6 C 6.242188 -6.1875 6.257812 -6.34375 6.21875 -6.46875 C 6.1875 -6.59375 6.070312 -6.6875 5.875 -6.75 L 5.515625 -6.84375 L 5.515625 -6.984375 L 7.625 -6.984375 L 7.625 -6.84375 L 7.203125 -6.734375 C 7.015625 -6.679688 6.867188 -6.609375 6.765625 -6.515625 C 6.671875 -6.421875 6.585938 -6.273438 6.515625 -6.078125 L 4.390625 0.046875 Z M 3.546875 0.046875 "/></g></g></g><g fill="#00ffff" fill-opacity="1"><g transform="translate(29.100084, 19.596776)"><g><path d="M 2.03125 -7.953125 C 1.695312 -7.953125 1.414062 -8.054688 1.1875 -8.265625 C 0.96875 -8.472656 0.859375 -8.738281 0.859375 -9.0625 C 0.859375 -9.382812 0.96875 -9.644531 1.1875 -9.84375 C 1.414062 -10.050781 1.695312 -10.15625 2.03125 -10.15625 C 2.363281 -10.15625 2.640625 -10.050781 2.859375 -9.84375 C 3.078125 -9.644531 3.1875 -9.382812 3.1875 -9.0625 C 3.1875 -8.738281 3.078125 -8.472656 2.859375 -8.265625 C 2.640625 -8.054688 2.363281 -7.953125 2.03125 -7.953125 Z M 0.3125 0 L 0.3125 -0.140625 L 0.515625 -0.203125 C 0.710938 -0.265625 0.847656 -0.351562 0.921875 -0.46875 C 0.992188 -0.582031 1.03125 -0.734375 1.03125 -0.921875 L 1.03125 -5.46875 C 1.03125 -5.675781 0.992188 -5.828125 0.921875 -5.921875 C 0.847656 -6.023438 0.710938 -6.097656 0.515625 -6.140625 L 0.3125 -6.1875 L 0.3125 -6.328125 L 2.96875 -7.1875 L 3.125 -7.046875 L 3.078125 -4.984375 L 3.078125 -0.921875 C 3.078125 -0.722656 3.113281 -0.566406 3.1875 -0.453125 C 3.257812 -0.335938 3.390625 -0.25 3.578125 -0.1875 L 3.71875 -0.140625 L 3.71875 0 Z M 0.3125 0 "/></g></g></g><g fill="#00ffff" fill-opacity="1"><g transform="translate(33.164593, 19.596776)"><g><path d="M 3.96875 0.21875 C 3.226562 0.21875 2.585938 0.0664062 2.046875 -0.234375 C 1.503906 -0.546875 1.082031 -0.976562 0.78125 -1.53125 C 0.488281 -2.09375 0.34375 -2.753906 0.34375 -3.515625 C 0.34375 -4.265625 0.5 -4.914062 0.8125 -5.46875 C 1.132812 -6.019531 1.566406 -6.445312 2.109375 -6.75 C 2.660156 -7.050781 3.28125 -7.203125 3.96875 -7.203125 C 4.65625 -7.203125 5.269531 -7.050781 5.8125 -6.75 C 6.351562 -6.457031 6.78125 -6.035156 7.09375 -5.484375 C 7.40625 -4.929688 7.5625 -4.273438 7.5625 -3.515625 C 7.5625 -2.742188 7.410156 -2.082031 7.109375 -1.53125 C 6.816406 -0.976562 6.398438 -0.546875 5.859375 -0.234375 C 5.328125 0.0664062 4.695312 0.21875 3.96875 0.21875 Z M 3.96875 -0.078125 C 4.300781 -0.078125 4.566406 -0.171875 4.765625 -0.359375 C 4.972656 -0.554688 5.125 -0.898438 5.21875 -1.390625 C 5.3125 -1.890625 5.359375 -2.585938 5.359375 -3.484375 C 5.359375 -4.390625 5.3125 -5.085938 5.21875 -5.578125 C 5.125 -6.078125 4.972656 -6.421875 4.765625 -6.609375 C 4.566406 -6.804688 4.300781 -6.90625 3.96875 -6.90625 C 3.625 -6.90625 3.347656 -6.804688 3.140625 -6.609375 C 2.929688 -6.421875 2.78125 -6.078125 2.6875 -5.578125 C 2.601562 -5.085938 2.5625 -4.390625 2.5625 -3.484375 C 2.5625 -2.585938 2.601562 -1.890625 2.6875 -1.390625 C 2.78125 -0.898438 2.929688 -0.554688 3.140625 -0.359375 C 3.347656 -0.171875 3.625 -0.078125 3.96875 -0.078125 Z M 3.96875 -0.078125 "/></g></g></g><g fill="#00ffff" fill-opacity="1"><g transform="translate(41.075879, 19.596776)"><g/></g></g><g fill="#00ffff" fill-opacity="1"><g transform="translate(44.240396, 19.596776)"><g><path d="M 0.3125 0 L 0.3125 -0.140625 L 0.625 -0.265625 C 0.820312 -0.335938 0.945312 -0.429688 1 -0.546875 C 1.0625 -0.660156 1.09375 -0.8125 1.09375 -1 L 1.09375 -8.578125 C 1.09375 -8.773438 1.0625 -8.929688 1 -9.046875 C 0.945312 -9.160156 0.820312 -9.25 0.625 -9.3125 L 0.3125 -9.4375 L 0.3125 -9.578125 L 4.015625 -9.578125 L 4.015625 -9.4375 L 3.765625 -9.3125 C 3.578125 -9.25 3.445312 -9.15625 3.375 -9.03125 C 3.3125 -8.914062 3.28125 -8.757812 3.28125 -8.5625 L 3.28125 -0.296875 L 5.515625 -0.296875 C 5.867188 -0.296875 6.128906 -0.378906 6.296875 -0.546875 C 6.472656 -0.722656 6.640625 -0.976562 6.796875 -1.3125 L 7.359375 -2.53125 L 7.5 -2.53125 L 7.375 0 Z M 0.3125 0 "/></g></g></g><g fill="#00ffff" fill-opacity="1"><g transform="translate(52.079097, 19.596776)"><g><path d="M 3.9375 -7.203125 C 4.5625 -7.203125 5.097656 -7.070312 5.546875 -6.8125 C 5.992188 -6.5625 6.332031 -6.210938 6.5625 -5.765625 C 6.800781 -5.328125 6.921875 -4.828125 6.921875 -4.265625 C 6.921875 -4.160156 6.914062 -4.050781 6.90625 -3.9375 C 6.894531 -3.832031 6.875 -3.734375 6.84375 -3.640625 L 2.53125 -3.640625 C 2.539062 -2.597656 2.722656 -1.847656 3.078125 -1.390625 C 3.441406 -0.929688 3.984375 -0.703125 4.703125 -0.703125 C 5.179688 -0.703125 5.570312 -0.773438 5.875 -0.921875 C 6.175781 -1.078125 6.457031 -1.304688 6.71875 -1.609375 L 6.859375 -1.484375 C 6.566406 -0.953125 6.171875 -0.535156 5.671875 -0.234375 C 5.171875 0.0664062 4.570312 0.21875 3.875 0.21875 C 3.1875 0.21875 2.578125 0.0703125 2.046875 -0.21875 C 1.515625 -0.519531 1.097656 -0.945312 0.796875 -1.5 C 0.492188 -2.050781 0.34375 -2.707031 0.34375 -3.46875 C 0.34375 -4.257812 0.515625 -4.929688 0.859375 -5.484375 C 1.210938 -6.046875 1.660156 -6.472656 2.203125 -6.765625 C 2.753906 -7.054688 3.332031 -7.203125 3.9375 -7.203125 Z M 3.890625 -6.90625 C 3.609375 -6.90625 3.367188 -6.820312 3.171875 -6.65625 C 2.972656 -6.488281 2.816406 -6.1875 2.703125 -5.75 C 2.597656 -5.320312 2.539062 -4.71875 2.53125 -3.9375 L 5.015625 -3.9375 C 5.109375 -4.988281 5.066406 -5.742188 4.890625 -6.203125 C 4.710938 -6.671875 4.378906 -6.90625 3.890625 -6.90625 Z M 3.890625 -6.90625 "/></g></g></g><g fill="#00ffff" fill-opacity="1"><g transform="translate(59.438762, 19.596776)"><g><path d="M 2.40625 0.21875 C 1.84375 0.21875 1.367188 0.0625 0.984375 -0.25 C 0.609375 -0.570312 0.421875 -1.035156 0.421875 -1.640625 C 0.421875 -2.097656 0.648438 -2.515625 1.109375 -2.890625 C 1.578125 -3.273438 2.3125 -3.566406 3.3125 -3.765625 C 3.46875 -3.785156 3.640625 -3.8125 3.828125 -3.84375 C 4.023438 -3.882812 4.226562 -3.925781 4.4375 -3.96875 L 4.4375 -5.109375 C 4.4375 -5.765625 4.359375 -6.222656 4.203125 -6.484375 C 4.046875 -6.753906 3.796875 -6.890625 3.453125 -6.890625 C 3.222656 -6.890625 3.039062 -6.8125 2.90625 -6.65625 C 2.769531 -6.507812 2.679688 -6.253906 2.640625 -5.890625 L 2.609375 -5.734375 C 2.585938 -5.316406 2.484375 -5.007812 2.296875 -4.8125 C 2.117188 -4.625 1.894531 -4.53125 1.625 -4.53125 C 1.375 -4.53125 1.164062 -4.609375 1 -4.765625 C 0.832031 -4.921875 0.75 -5.128906 0.75 -5.390625 C 0.75 -5.785156 0.882812 -6.117188 1.15625 -6.390625 C 1.4375 -6.660156 1.804688 -6.863281 2.265625 -7 C 2.722656 -7.132812 3.21875 -7.203125 3.75 -7.203125 C 4.601562 -7.203125 5.265625 -6.988281 5.734375 -6.5625 C 6.203125 -6.144531 6.4375 -5.460938 6.4375 -4.515625 L 6.4375 -1.3125 C 6.4375 -0.875 6.640625 -0.65625 7.046875 -0.65625 L 7.375 -0.65625 L 7.5 -0.53125 C 7.320312 -0.300781 7.125 -0.125 6.90625 0 C 6.6875 0.125 6.378906 0.1875 5.984375 0.1875 C 5.554688 0.1875 5.21875 0.0859375 4.96875 -0.109375 C 4.71875 -0.304688 4.554688 -0.570312 4.484375 -0.90625 C 4.191406 -0.59375 3.894531 -0.328125 3.59375 -0.109375 C 3.289062 0.109375 2.894531 0.21875 2.40625 0.21875 Z M 3.296875 -0.671875 C 3.484375 -0.671875 3.660156 -0.710938 3.828125 -0.796875 C 4.003906 -0.890625 4.207031 -1.035156 4.4375 -1.234375 L 4.4375 -3.671875 C 4.34375 -3.648438 4.242188 -3.628906 4.140625 -3.609375 C 4.046875 -3.585938 3.9375 -3.570312 3.8125 -3.5625 C 3.375 -3.4375 3.019531 -3.238281 2.75 -2.96875 C 2.476562 -2.695312 2.34375 -2.328125 2.34375 -1.859375 C 2.34375 -1.460938 2.4375 -1.164062 2.625 -0.96875 C 2.8125 -0.769531 3.035156 -0.671875 3.296875 -0.671875 Z M 3.296875 -0.671875 "/></g></g></g><g fill="#00ffff" fill-opacity="1"><g transform="translate(66.958107, 19.596776)"><g><path d="M 0.296875 0 L 0.296875 -0.140625 L 0.5 -0.203125 C 0.832031 -0.296875 1 -0.535156 1 -0.921875 L 1 -5.453125 C 1 -5.671875 0.960938 -5.828125 0.890625 -5.921875 C 0.828125 -6.023438 0.703125 -6.097656 0.515625 -6.140625 L 0.296875 -6.203125 L 0.296875 -6.34375 L 2.765625 -7.1875 L 2.921875 -7.046875 L 3.03125 -6.171875 C 3.375 -6.472656 3.753906 -6.71875 4.171875 -6.90625 C 4.597656 -7.101562 5.019531 -7.203125 5.4375 -7.203125 C 6.082031 -7.203125 6.578125 -7.023438 6.921875 -6.671875 C 7.265625 -6.328125 7.4375 -5.796875 7.4375 -5.078125 L 7.4375 -0.90625 C 7.4375 -0.519531 7.617188 -0.28125 7.984375 -0.1875 L 8.109375 -0.140625 L 8.109375 0 L 4.6875 0 L 4.6875 -0.140625 L 4.875 -0.203125 C 5.21875 -0.304688 5.390625 -0.546875 5.390625 -0.921875 L 5.390625 -5.546875 C 5.390625 -6.160156 5.078125 -6.46875 4.453125 -6.46875 C 4.023438 -6.46875 3.5625 -6.253906 3.0625 -5.828125 L 3.0625 -0.90625 C 3.0625 -0.519531 3.234375 -0.28125 3.578125 -0.1875 L 3.703125 -0.140625 L 3.703125 0 Z M 0.296875 0 "/></g></g></g><g fill="#00ffff" fill-opacity="1"><g transform="translate(75.348416, 19.596776)"><g><path d="M 3.375 0.21875 C 2.800781 0.21875 2.285156 0.09375 1.828125 -0.15625 C 1.367188 -0.414062 1.003906 -0.8125 0.734375 -1.34375 C 0.472656 -1.882812 0.34375 -2.578125 0.34375 -3.421875 C 0.34375 -4.273438 0.492188 -4.976562 0.796875 -5.53125 C 1.097656 -6.09375 1.492188 -6.507812 1.984375 -6.78125 C 2.484375 -7.0625 3.019531 -7.203125 3.59375 -7.203125 C 3.9375 -7.203125 4.257812 -7.164062 4.5625 -7.09375 C 4.875 -7.03125 5.15625 -6.929688 5.40625 -6.796875 L 5.40625 -8.6875 C 5.40625 -8.882812 5.375 -9.03125 5.3125 -9.125 C 5.25 -9.226562 5.113281 -9.296875 4.90625 -9.328125 L 4.625 -9.390625 L 4.625 -9.53125 L 7.265625 -10.171875 L 7.4375 -10.046875 L 7.375 -8.015625 L 7.375 -0.921875 C 7.375 -0.722656 7.40625 -0.5625 7.46875 -0.4375 C 7.539062 -0.320312 7.671875 -0.238281 7.859375 -0.1875 L 7.984375 -0.140625 L 7.984375 0 L 5.5 0.15625 L 5.375 -0.359375 C 5.113281 -0.191406 4.816406 -0.0546875 4.484375 0.046875 C 4.148438 0.160156 3.78125 0.21875 3.375 0.21875 Z M 4.203125 -0.3125 C 4.609375 -0.3125 4.984375 -0.4375 5.328125 -0.6875 L 5.328125 -6.4375 C 4.972656 -6.675781 4.601562 -6.796875 4.21875 -6.796875 C 3.757812 -6.796875 3.363281 -6.523438 3.03125 -5.984375 C 2.707031 -5.453125 2.546875 -4.609375 2.546875 -3.453125 C 2.546875 -2.304688 2.695312 -1.492188 3 -1.015625 C 3.3125 -0.546875 3.710938 -0.3125 4.203125 -0.3125 Z M 4.203125 -0.3125 "/></g></g></g><g fill="#00ffff" fill-opacity="1"><g transform="translate(83.680671, 19.596776)"><g><path d="M 0.296875 0 L 0.296875 -0.140625 L 0.515625 -0.203125 C 0.703125 -0.265625 0.832031 -0.351562 0.90625 -0.46875 C 0.976562 -0.582031 1.015625 -0.734375 1.015625 -0.921875 L 1.015625 -5.453125 C 1.015625 -5.671875 0.976562 -5.828125 0.90625 -5.921875 C 0.832031 -6.023438 0.703125 -6.097656 0.515625 -6.140625 L 0.296875 -6.203125 L 0.296875 -6.34375 L 2.78125 -7.1875 L 2.9375 -7.046875 L 3.0625 -5.796875 L 3.0625 -5.671875 C 3.195312 -5.941406 3.375 -6.191406 3.59375 -6.421875 C 3.8125 -6.648438 4.050781 -6.835938 4.3125 -6.984375 C 4.582031 -7.128906 4.847656 -7.203125 5.109375 -7.203125 C 5.472656 -7.203125 5.75 -7.097656 5.9375 -6.890625 C 6.132812 -6.691406 6.234375 -6.4375 6.234375 -6.125 C 6.234375 -5.789062 6.140625 -5.535156 5.953125 -5.359375 C 5.765625 -5.179688 5.539062 -5.09375 5.28125 -5.09375 C 4.875 -5.09375 4.515625 -5.296875 4.203125 -5.703125 L 4.1875 -5.734375 C 4.082031 -5.867188 3.96875 -5.941406 3.84375 -5.953125 C 3.71875 -5.972656 3.601562 -5.914062 3.5 -5.78125 C 3.40625 -5.6875 3.328125 -5.578125 3.265625 -5.453125 C 3.203125 -5.335938 3.140625 -5.203125 3.078125 -5.046875 L 3.078125 -1 C 3.078125 -0.613281 3.242188 -0.375 3.578125 -0.28125 L 4.046875 -0.140625 L 4.046875 0 Z M 0.296875 0 "/></g></g></g><g fill="#00ffff" fill-opacity="1"><g transform="translate(90.082278, 19.596776)"><g><path d="M 3.96875 0.21875 C 3.226562 0.21875 2.585938 0.0664062 2.046875 -0.234375 C 1.503906 -0.546875 1.082031 -0.976562 0.78125 -1.53125 C 0.488281 -2.09375 0.34375 -2.753906 0.34375 -3.515625 C 0.34375 -4.265625 0.5 -4.914062 0.8125 -5.46875 C 1.132812 -6.019531 1.566406 -6.445312 2.109375 -6.75 C 2.660156 -7.050781 3.28125 -7.203125 3.96875 -7.203125 C 4.65625 -7.203125 5.269531 -7.050781 5.8125 -6.75 C 6.351562 -6.457031 6.78125 -6.035156 7.09375 -5.484375 C 7.40625 -4.929688 7.5625 -4.273438 7.5625 -3.515625 C 7.5625 -2.742188 7.410156 -2.082031 7.109375 -1.53125 C 6.816406 -0.976562 6.398438 -0.546875 5.859375 -0.234375 C 5.328125 0.0664062 4.695312 0.21875 3.96875 0.21875 Z M 3.96875 -0.078125 C 4.300781 -0.078125 4.566406 -0.171875 4.765625 -0.359375 C 4.972656 -0.554688 5.125 -0.898438 5.21875 -1.390625 C 5.3125 -1.890625 5.359375 -2.585938 5.359375 -3.484375 C 5.359375 -4.390625 5.3125 -5.085938 5.21875 -5.578125 C 5.125 -6.078125 4.972656 -6.421875 4.765625 -6.609375 C 4.566406 -6.804688 4.300781 -6.90625 3.96875 -6.90625 C 3.625 -6.90625 3.347656 -6.804688 3.140625 -6.609375 C 2.929688 -6.421875 2.78125 -6.078125 2.6875 -5.578125 C 2.601562 -5.085938 2.5625 -4.390625 2.5625 -3.484375 C 2.5625 -2.585938 2.601562 -1.890625 2.6875 -1.390625 C 2.78125 -0.898438 2.929688 -0.554688 3.140625 -0.359375 C 3.347656 -0.171875 3.625 -0.078125 3.96875 -0.078125 Z M 3.96875 -0.078125 "/></g></g></g><g fill="#6c62e2" fill-opacity="1"><g transform="translate(6.596485, 19.596776)"><g><path d="M 3.4375 0.265625 C 2.90625 0.265625 2.363281 0.195312 1.8125 0.0625 C 1.257812 -0.0625 0.800781 -0.234375 0.4375 -0.453125 L 0.515625 -2.421875 L 0.65625 -2.421875 L 1.109375 -1.484375 C 1.242188 -1.210938 1.382812 -0.972656 1.53125 -0.765625 C 1.6875 -0.554688 1.898438 -0.394531 2.171875 -0.28125 C 2.367188 -0.175781 2.554688 -0.109375 2.734375 -0.078125 C 2.910156 -0.046875 3.113281 -0.03125 3.34375 -0.03125 C 3.925781 -0.03125 4.390625 -0.1875 4.734375 -0.5 C 5.078125 -0.820312 5.25 -1.234375 5.25 -1.734375 C 5.25 -2.210938 5.132812 -2.582031 4.90625 -2.84375 C 4.675781 -3.113281 4.300781 -3.375 3.78125 -3.625 L 3.1875 -3.890625 C 2.351562 -4.253906 1.703125 -4.675781 1.234375 -5.15625 C 0.765625 -5.632812 0.53125 -6.269531 0.53125 -7.0625 C 0.53125 -7.632812 0.675781 -8.128906 0.96875 -8.546875 C 1.269531 -8.960938 1.679688 -9.28125 2.203125 -9.5 C 2.734375 -9.726562 3.351562 -9.84375 4.0625 -9.84375 C 4.570312 -9.84375 5.054688 -9.773438 5.515625 -9.640625 C 5.984375 -9.503906 6.382812 -9.320312 6.71875 -9.09375 L 6.640625 -7.34375 L 6.484375 -7.34375 L 5.890625 -8.4375 C 5.722656 -8.769531 5.554688 -9.003906 5.390625 -9.140625 C 5.234375 -9.285156 5.046875 -9.390625 4.828125 -9.453125 C 4.703125 -9.484375 4.585938 -9.503906 4.484375 -9.515625 C 4.378906 -9.535156 4.242188 -9.546875 4.078125 -9.546875 C 3.585938 -9.546875 3.171875 -9.398438 2.828125 -9.109375 C 2.492188 -8.828125 2.328125 -8.445312 2.328125 -7.96875 C 2.328125 -7.476562 2.457031 -7.082031 2.71875 -6.78125 C 2.976562 -6.488281 3.359375 -6.226562 3.859375 -6 L 4.53125 -5.703125 C 5.457031 -5.296875 6.125 -4.863281 6.53125 -4.40625 C 6.9375 -3.945312 7.140625 -3.351562 7.140625 -2.625 C 7.140625 -1.769531 6.816406 -1.070312 6.171875 -0.53125 C 5.535156 0 4.625 0.265625 3.4375 0.265625 Z M 3.4375 0.265625 "/></g></g></g><g fill="#6c62e2" fill-opacity="1"><g transform="translate(14.159376, 19.596776)"><g><path d="M 2.40625 0.21875 C 1.84375 0.21875 1.367188 0.0625 0.984375 -0.25 C 0.609375 -0.570312 0.421875 -1.035156 0.421875 -1.640625 C 0.421875 -2.097656 0.648438 -2.515625 1.109375 -2.890625 C 1.578125 -3.273438 2.3125 -3.566406 3.3125 -3.765625 C 3.46875 -3.785156 3.640625 -3.8125 3.828125 -3.84375 C 4.023438 -3.882812 4.226562 -3.925781 4.4375 -3.96875 L 4.4375 -5.109375 C 4.4375 -5.765625 4.359375 -6.222656 4.203125 -6.484375 C 4.046875 -6.753906 3.796875 -6.890625 3.453125 -6.890625 C 3.222656 -6.890625 3.039062 -6.8125 2.90625 -6.65625 C 2.769531 -6.507812 2.679688 -6.253906 2.640625 -5.890625 L 2.609375 -5.734375 C 2.585938 -5.316406 2.484375 -5.007812 2.296875 -4.8125 C 2.117188 -4.625 1.894531 -4.53125 1.625 -4.53125 C 1.375 -4.53125 1.164062 -4.609375 1 -4.765625 C 0.832031 -4.921875 0.75 -5.128906 0.75 -5.390625 C 0.75 -5.785156 0.882812 -6.117188 1.15625 -6.390625 C 1.4375 -6.660156 1.804688 -6.863281 2.265625 -7 C 2.722656 -7.132812 3.21875 -7.203125 3.75 -7.203125 C 4.601562 -7.203125 5.265625 -6.988281 5.734375 -6.5625 C 6.203125 -6.144531 6.4375 -5.460938 6.4375 -4.515625 L 6.4375 -1.3125 C 6.4375 -0.875 6.640625 -0.65625 7.046875 -0.65625 L 7.375 -0.65625 L 7.5 -0.53125 C 7.320312 -0.300781 7.125 -0.125 6.90625 0 C 6.6875 0.125 6.378906 0.1875 5.984375 0.1875 C 5.554688 0.1875 5.21875 0.0859375 4.96875 -0.109375 C 4.71875 -0.304688 4.554688 -0.570312 4.484375 -0.90625 C 4.191406 -0.59375 3.894531 -0.328125 3.59375 -0.109375 C 3.289062 0.109375 2.894531 0.21875 2.40625 0.21875 Z M 3.296875 -0.671875 C 3.484375 -0.671875 3.660156 -0.710938 3.828125 -0.796875 C 4.003906 -0.890625 4.207031 -1.035156 4.4375 -1.234375 L 4.4375 -3.671875 C 4.34375 -3.648438 4.242188 -3.628906 4.140625 -3.609375 C 4.046875 -3.585938 3.9375 -3.570312 3.8125 -3.5625 C 3.375 -3.4375 3.019531 -3.238281 2.75 -2.96875 C 2.476562 -2.695312 2.34375 -2.328125 2.34375 -1.859375 C 2.34375 -1.460938 2.4375 -1.164062 2.625 -0.96875 C 2.8125 -0.769531 3.035156 -0.671875 3.296875 -0.671875 Z M 2.859375 -8.3125 C 2.992188 -8.5625 3.148438 -8.84375 3.328125 -9.15625 C 3.503906 -9.476562 3.710938 -9.867188 3.953125 -10.328125 C 4.117188 -10.628906 4.273438 -10.847656 4.421875 -10.984375 C 4.578125 -11.128906 4.757812 -11.203125 4.96875 -11.203125 C 5.144531 -11.203125 5.300781 -11.140625 5.4375 -11.015625 C 5.570312 -10.898438 5.640625 -10.753906 5.640625 -10.578125 C 5.640625 -10.398438 5.578125 -10.226562 5.453125 -10.0625 C 5.328125 -9.90625 5.117188 -9.71875 4.828125 -9.5 C 4.410156 -9.21875 4.0625 -8.96875 3.78125 -8.75 C 3.5 -8.53125 3.242188 -8.335938 3.015625 -8.171875 Z M 2.859375 -8.3125 "/></g></g></g><g fill="#6c62e2" fill-opacity="1"><g transform="translate(21.67872, 19.596776)"><g><path d="M 3.546875 0.046875 L 0.96875 -6.125 C 0.832031 -6.457031 0.601562 -6.675781 0.28125 -6.78125 L 0.078125 -6.84375 L 0.078125 -6.984375 L 3.828125 -6.984375 L 3.828125 -6.84375 L 3.578125 -6.78125 C 3.191406 -6.6875 3.070312 -6.4375 3.21875 -6.03125 L 4.75 -1.96875 L 6.171875 -6 C 6.242188 -6.1875 6.257812 -6.34375 6.21875 -6.46875 C 6.1875 -6.59375 6.070312 -6.6875 5.875 -6.75 L 5.515625 -6.84375 L 5.515625 -6.984375 L 7.625 -6.984375 L 7.625 -6.84375 L 7.203125 -6.734375 C 7.015625 -6.679688 6.867188 -6.609375 6.765625 -6.515625 C 6.671875 -6.421875 6.585938 -6.273438 6.515625 -6.078125 L 4.390625 0.046875 Z M 3.546875 0.046875 "/></g></g></g><g fill="#6c62e2" fill-opacity="1"><g transform="translate(29.372261, 19.596776)"><g><path d="M 2.03125 -7.953125 C 1.695312 -7.953125 1.414062 -8.054688 1.1875 -8.265625 C 0.96875 -8.472656 0.859375 -8.738281 0.859375 -9.0625 C 0.859375 -9.382812 0.96875 -9.644531 1.1875 -9.84375 C 1.414062 -10.050781 1.695312 -10.15625 2.03125 -10.15625 C 2.363281 -10.15625 2.640625 -10.050781 2.859375 -9.84375 C 3.078125 -9.644531 3.1875 -9.382812 3.1875 -9.0625 C 3.1875 -8.738281 3.078125 -8.472656 2.859375 -8.265625 C 2.640625 -8.054688 2.363281 -7.953125 2.03125 -7.953125 Z M 0.3125 0 L 0.3125 -0.140625 L 0.515625 -0.203125 C 0.710938 -0.265625 0.847656 -0.351562 0.921875 -0.46875 C 0.992188 -0.582031 1.03125 -0.734375 1.03125 -0.921875 L 1.03125 -5.46875 C 1.03125 -5.675781 0.992188 -5.828125 0.921875 -5.921875 C 0.847656 -6.023438 0.710938 -6.097656 0.515625 -6.140625 L 0.3125 -6.1875 L 0.3125 -6.328125 L 2.96875 -7.1875 L 3.125 -7.046875 L 3.078125 -4.984375 L 3.078125 -0.921875 C 3.078125 -0.722656 3.113281 -0.566406 3.1875 -0.453125 C 3.257812 -0.335938 3.390625 -0.25 3.578125 -0.1875 L 3.71875 -0.140625 L 3.71875 0 Z M 0.3125 0 "/></g></g></g><g fill="#6c62e2" fill-opacity="1"><g transform="translate(33.436771, 19.596776)"><g><path d="M 3.96875 0.21875 C 3.226562 0.21875 2.585938 0.0664062 2.046875 -0.234375 C 1.503906 -0.546875 1.082031 -0.976562 0.78125 -1.53125 C 0.488281 -2.09375 0.34375 -2.753906 0.34375 -3.515625 C 0.34375 -4.265625 0.5 -4.914062 0.8125 -5.46875 C 1.132812 -6.019531 1.566406 -6.445312 2.109375 -6.75 C 2.660156 -7.050781 3.28125 -7.203125 3.96875 -7.203125 C 4.65625 -7.203125 5.269531 -7.050781 5.8125 -6.75 C 6.351562 -6.457031 6.78125 -6.035156 7.09375 -5.484375 C 7.40625 -4.929688 7.5625 -4.273438 7.5625 -3.515625 C 7.5625 -2.742188 7.410156 -2.082031 7.109375 -1.53125 C 6.816406 -0.976562 6.398438 -0.546875 5.859375 -0.234375 C 5.328125 0.0664062 4.695312 0.21875 3.96875 0.21875 Z M 3.96875 -0.078125 C 4.300781 -0.078125 4.566406 -0.171875 4.765625 -0.359375 C 4.972656 -0.554688 5.125 -0.898438 5.21875 -1.390625 C 5.3125 -1.890625 5.359375 -2.585938 5.359375 -3.484375 C 5.359375 -4.390625 5.3125 -5.085938 5.21875 -5.578125 C 5.125 -6.078125 4.972656 -6.421875 4.765625 -6.609375 C 4.566406 -6.804688 4.300781 -6.90625 3.96875 -6.90625 C 3.625 -6.90625 3.347656 -6.804688 3.140625 -6.609375 C 2.929688 -6.421875 2.78125 -6.078125 2.6875 -5.578125 C 2.601562 -5.085938 2.5625 -4.390625 2.5625 -3.484375 C 2.5625 -2.585938 2.601562 -1.890625 2.6875 -1.390625 C 2.78125 -0.898438 2.929688 -0.554688 3.140625 -0.359375 C 3.347656 -0.171875 3.625 -0.078125 3.96875 -0.078125 Z M 3.96875 -0.078125 "/></g></g></g><g fill="#6c62e2" fill-opacity="1"><g transform="translate(41.348057, 19.596776)"><g/></g></g><g fill="#6c62e2" fill-opacity="1"><g transform="translate(44.512573, 19.596776)"><g><path d="M 0.3125 0 L 0.3125 -0.140625 L 0.625 -0.265625 C 0.820312 -0.335938 0.945312 -0.429688 1 -0.546875 C 1.0625 -0.660156 1.09375 -0.8125 1.09375 -1 L 1.09375 -8.578125 C 1.09375 -8.773438 1.0625 -8.929688 1 -9.046875 C 0.945312 -9.160156 0.820312 -9.25 0.625 -9.3125 L 0.3125 -9.4375 L 0.3125 -9.578125 L 4.015625 -9.578125 L 4.015625 -9.4375 L 3.765625 -9.3125 C 3.578125 -9.25 3.445312 -9.15625 3.375 -9.03125 C 3.3125 -8.914062 3.28125 -8.757812 3.28125 -8.5625 L 3.28125 -0.296875 L 5.515625 -0.296875 C 5.867188 -0.296875 6.128906 -0.378906 6.296875 -0.546875 C 6.472656 -0.722656 6.640625 -0.976562 6.796875 -1.3125 L 7.359375 -2.53125 L 7.5 -2.53125 L 7.375 0 Z M 0.3125 0 "/></g></g></g><g fill="#6c62e2" fill-opacity="1"><g transform="translate(52.351274, 19.596776)"><g><path d="M 3.9375 -7.203125 C 4.5625 -7.203125 5.097656 -7.070312 5.546875 -6.8125 C 5.992188 -6.5625 6.332031 -6.210938 6.5625 -5.765625 C 6.800781 -5.328125 6.921875 -4.828125 6.921875 -4.265625 C 6.921875 -4.160156 6.914062 -4.050781 6.90625 -3.9375 C 6.894531 -3.832031 6.875 -3.734375 6.84375 -3.640625 L 2.53125 -3.640625 C 2.539062 -2.597656 2.722656 -1.847656 3.078125 -1.390625 C 3.441406 -0.929688 3.984375 -0.703125 4.703125 -0.703125 C 5.179688 -0.703125 5.570312 -0.773438 5.875 -0.921875 C 6.175781 -1.078125 6.457031 -1.304688 6.71875 -1.609375 L 6.859375 -1.484375 C 6.566406 -0.953125 6.171875 -0.535156 5.671875 -0.234375 C 5.171875 0.0664062 4.570312 0.21875 3.875 0.21875 C 3.1875 0.21875 2.578125 0.0703125 2.046875 -0.21875 C 1.515625 -0.519531 1.097656 -0.945312 0.796875 -1.5 C 0.492188 -2.050781 0.34375 -2.707031 0.34375 -3.46875 C 0.34375 -4.257812 0.515625 -4.929688 0.859375 -5.484375 C 1.210938 -6.046875 1.660156 -6.472656 2.203125 -6.765625 C 2.753906 -7.054688 3.332031 -7.203125 3.9375 -7.203125 Z M 3.890625 -6.90625 C 3.609375 -6.90625 3.367188 -6.820312 3.171875 -6.65625 C 2.972656 -6.488281 2.816406 -6.1875 2.703125 -5.75 C 2.597656 -5.320312 2.539062 -4.71875 2.53125 -3.9375 L 5.015625 -3.9375 C 5.109375 -4.988281 5.066406 -5.742188 4.890625 -6.203125 C 4.710938 -6.671875 4.378906 -6.90625 3.890625 -6.90625 Z M 3.890625 -6.90625 "/></g></g></g><g fill="#6c62e2" fill-opacity="1"><g transform="translate(59.71094, 19.596776)"><g><path d="M 2.40625 0.21875 C 1.84375 0.21875 1.367188 0.0625 0.984375 -0.25 C 0.609375 -0.570312 0.421875 -1.035156 0.421875 -1.640625 C 0.421875 -2.097656 0.648438 -2.515625 1.109375 -2.890625 C 1.578125 -3.273438 2.3125 -3.566406 3.3125 -3.765625 C 3.46875 -3.785156 3.640625 -3.8125 3.828125 -3.84375 C 4.023438 -3.882812 4.226562 -3.925781 4.4375 -3.96875 L 4.4375 -5.109375 C 4.4375 -5.765625 4.359375 -6.222656 4.203125 -6.484375 C 4.046875 -6.753906 3.796875 -6.890625 3.453125 -6.890625 C 3.222656 -6.890625 3.039062 -6.8125 2.90625 -6.65625 C 2.769531 -6.507812 2.679688 -6.253906 2.640625 -5.890625 L 2.609375 -5.734375 C 2.585938 -5.316406 2.484375 -5.007812 2.296875 -4.8125 C 2.117188 -4.625 1.894531 -4.53125 1.625 -4.53125 C 1.375 -4.53125 1.164062 -4.609375 1 -4.765625 C 0.832031 -4.921875 0.75 -5.128906 0.75 -5.390625 C 0.75 -5.785156 0.882812 -6.117188 1.15625 -6.390625 C 1.4375 -6.660156 1.804688 -6.863281 2.265625 -7 C 2.722656 -7.132812 3.21875 -7.203125 3.75 -7.203125 C 4.601562 -7.203125 5.265625 -6.988281 5.734375 -6.5625 C 6.203125 -6.144531 6.4375 -5.460938 6.4375 -4.515625 L 6.4375 -1.3125 C 6.4375 -0.875 6.640625 -0.65625 7.046875 -0.65625 L 7.375 -0.65625 L 7.5 -0.53125 C 7.320312 -0.300781 7.125 -0.125 6.90625 0 C 6.6875 0.125 6.378906 0.1875 5.984375 0.1875 C 5.554688 0.1875 5.21875 0.0859375 4.96875 -0.109375 C 4.71875 -0.304688 4.554688 -0.570312 4.484375 -0.90625 C 4.191406 -0.59375 3.894531 -0.328125 3.59375 -0.109375 C 3.289062 0.109375 2.894531 0.21875 2.40625 0.21875 Z M 3.296875 -0.671875 C 3.484375 -0.671875 3.660156 -0.710938 3.828125 -0.796875 C 4.003906 -0.890625 4.207031 -1.035156 4.4375 -1.234375 L 4.4375 -3.671875 C 4.34375 -3.648438 4.242188 -3.628906 4.140625 -3.609375 C 4.046875 -3.585938 3.9375 -3.570312 3.8125 -3.5625 C 3.375 -3.4375 3.019531 -3.238281 2.75 -2.96875 C 2.476562 -2.695312 2.34375 -2.328125 2.34375 -1.859375 C 2.34375 -1.460938 2.4375 -1.164062 2.625 -0.96875 C 2.8125 -0.769531 3.035156 -0.671875 3.296875 -0.671875 Z M 3.296875 -0.671875 "/></g></g></g><g fill="#6c62e2" fill-opacity="1"><g transform="translate(67.230284, 19.596776)"><g><path d="M 0.296875 0 L 0.296875 -0.140625 L 0.5 -0.203125 C 0.832031 -0.296875 1 -0.535156 1 -0.921875 L 1 -5.453125 C 1 -5.671875 0.960938 -5.828125 0.890625 -5.921875 C 0.828125 -6.023438 0.703125 -6.097656 0.515625 -6.140625 L 0.296875 -6.203125 L 0.296875 -6.34375 L 2.765625 -7.1875 L 2.921875 -7.046875 L 3.03125 -6.171875 C 3.375 -6.472656 3.753906 -6.71875 4.171875 -6.90625 C 4.597656 -7.101562 5.019531 -7.203125 5.4375 -7.203125 C 6.082031 -7.203125 6.578125 -7.023438 6.921875 -6.671875 C 7.265625 -6.328125 7.4375 -5.796875 7.4375 -5.078125 L 7.4375 -0.90625 C 7.4375 -0.519531 7.617188 -0.28125 7.984375 -0.1875 L 8.109375 -0.140625 L 8.109375 0 L 4.6875 0 L 4.6875 -0.140625 L 4.875 -0.203125 C 5.21875 -0.304688 5.390625 -0.546875 5.390625 -0.921875 L 5.390625 -5.546875 C 5.390625 -6.160156 5.078125 -6.46875 4.453125 -6.46875 C 4.023438 -6.46875 3.5625 -6.253906 3.0625 -5.828125 L 3.0625 -0.90625 C 3.0625 -0.519531 3.234375 -0.28125 3.578125 -0.1875 L 3.703125 -0.140625 L 3.703125 0 Z M 0.296875 0 "/></g></g></g><g fill="#6c62e2" fill-opacity="1"><g transform="translate(75.620594, 19.596776)"><g><path d="M 3.375 0.21875 C 2.800781 0.21875 2.285156 0.09375 1.828125 -0.15625 C 1.367188 -0.414062 1.003906 -0.8125 0.734375 -1.34375 C 0.472656 -1.882812 0.34375 -2.578125 0.34375 -3.421875 C 0.34375 -4.273438 0.492188 -4.976562 0.796875 -5.53125 C 1.097656 -6.09375 1.492188 -6.507812 1.984375 -6.78125 C 2.484375 -7.0625 3.019531 -7.203125 3.59375 -7.203125 C 3.9375 -7.203125 4.257812 -7.164062 4.5625 -7.09375 C 4.875 -7.03125 5.15625 -6.929688 5.40625 -6.796875 L 5.40625 -8.6875 C 5.40625 -8.882812 5.375 -9.03125 5.3125 -9.125 C 5.25 -9.226562 5.113281 -9.296875 4.90625 -9.328125 L 4.625 -9.390625 L 4.625 -9.53125 L 7.265625 -10.171875 L 7.4375 -10.046875 L 7.375 -8.015625 L 7.375 -0.921875 C 7.375 -0.722656 7.40625 -0.5625 7.46875 -0.4375 C 7.539062 -0.320312 7.671875 -0.238281 7.859375 -0.1875 L 7.984375 -0.140625 L 7.984375 0 L 5.5 0.15625 L 5.375 -0.359375 C 5.113281 -0.191406 4.816406 -0.0546875 4.484375 0.046875 C 4.148438 0.160156 3.78125 0.21875 3.375 0.21875 Z M 4.203125 -0.3125 C 4.609375 -0.3125 4.984375 -0.4375 5.328125 -0.6875 L 5.328125 -6.4375 C 4.972656 -6.675781 4.601562 -6.796875 4.21875 -6.796875 C 3.757812 -6.796875 3.363281 -6.523438 3.03125 -5.984375 C 2.707031 -5.453125 2.546875 -4.609375 2.546875 -3.453125 C 2.546875 -2.304688 2.695312 -1.492188 3 -1.015625 C 3.3125 -0.546875 3.710938 -0.3125 4.203125 -0.3125 Z M 4.203125 -0.3125 "/></g></g></g><g fill="#6c62e2" fill-opacity="1"><g transform="translate(83.952848, 19.596776)"><g><path d="M 0.296875 0 L 0.296875 -0.140625 L 0.515625 -0.203125 C 0.703125 -0.265625 0.832031 -0.351562 0.90625 -0.46875 C 0.976562 -0.582031 1.015625 -0.734375 1.015625 -0.921875 L 1.015625 -5.453125 C 1.015625 -5.671875 0.976562 -5.828125 0.90625 -5.921875 C 0.832031 -6.023438 0.703125 -6.097656 0.515625 -6.140625 L 0.296875 -6.203125 L 0.296875 -6.34375 L 2.78125 -7.1875 L 2.9375 -7.046875 L 3.0625 -5.796875 L 3.0625 -5.671875 C 3.195312 -5.941406 3.375 -6.191406 3.59375 -6.421875 C 3.8125 -6.648438 4.050781 -6.835938 4.3125 -6.984375 C 4.582031 -7.128906 4.847656 -7.203125 5.109375 -7.203125 C 5.472656 -7.203125 5.75 -7.097656 5.9375 -6.890625 C 6.132812 -6.691406 6.234375 -6.4375 6.234375 -6.125 C 6.234375 -5.789062 6.140625 -5.535156 5.953125 -5.359375 C 5.765625 -5.179688 5.539062 -5.09375 5.28125 -5.09375 C 4.875 -5.09375 4.515625 -5.296875 4.203125 -5.703125 L 4.1875 -5.734375 C 4.082031 -5.867188 3.96875 -5.941406 3.84375 -5.953125 C 3.71875 -5.972656 3.601562 -5.914062 3.5 -5.78125 C 3.40625 -5.6875 3.328125 -5.578125 3.265625 -5.453125 C 3.203125 -5.335938 3.140625 -5.203125 3.078125 -5.046875 L 3.078125 -1 C 3.078125 -0.613281 3.242188 -0.375 3.578125 -0.28125 L 4.046875 -0.140625 L 4.046875 0 Z M 0.296875 0 "/></g></g></g><g fill="#6c62e2" fill-opacity="1"><g transform="translate(90.354456, 19.596776)"><g><path d="M 3.96875 0.21875 C 3.226562 0.21875 2.585938 0.0664062 2.046875 -0.234375 C 1.503906 -0.546875 1.082031 -0.976562 0.78125 -1.53125 C 0.488281 -2.09375 0.34375 -2.753906 0.34375 -3.515625 C 0.34375 -4.265625 0.5 -4.914062 0.8125 -5.46875 C 1.132812 -6.019531 1.566406 -6.445312 2.109375 -6.75 C 2.660156 -7.050781 3.28125 -7.203125 3.96875 -7.203125 C 4.65625 -7.203125 5.269531 -7.050781 5.8125 -6.75 C 6.351562 -6.457031 6.78125 -6.035156 7.09375 -5.484375 C 7.40625 -4.929688 7.5625 -4.273438 7.5625 -3.515625 C 7.5625 -2.742188 7.410156 -2.082031 7.109375 -1.53125 C 6.816406 -0.976562 6.398438 -0.546875 5.859375 -0.234375 C 5.328125 0.0664062 4.695312 0.21875 3.96875 0.21875 Z M 3.96875 -0.078125 C 4.300781 -0.078125 4.566406 -0.171875 4.765625 -0.359375 C 4.972656 -0.554688 5.125 -0.898438 5.21875 -1.390625 C 5.3125 -1.890625 5.359375 -2.585938 5.359375 -3.484375 C 5.359375 -4.390625 5.3125 -5.085938 5.21875 -5.578125 C 5.125 -6.078125 4.972656 -6.421875 4.765625 -6.609375 C 4.566406 -6.804688 4.300781 -6.90625 3.96875 -6.90625 C 3.625 -6.90625 3.347656 -6.804688 3.140625 -6.609375 C 2.929688 -6.421875 2.78125 -6.078125 2.6875 -5.578125 C 2.601562 -5.085938 2.5625 -4.390625 2.5625 -3.484375 C 2.5625 -2.585938 2.601562 -1.890625 2.6875 -1.390625 C 2.78125 -0.898438 2.929688 -0.554688 3.140625 -0.359375 C 3.347656 -0.171875 3.625 -0.078125 3.96875 -0.078125 Z M 3.96875 -0.078125 "/></g></g></g></svg>